<svg width="79" height="80" viewBox="0 0 79 80" fill="none" xmlns="http://www.w3.org/2000/svg">
<mask id="mask0_505_709" style="mask-type:luminance" maskUnits="userSpaceOnUse" x="20" y="35" width="39" height="45">
<path d="M20.6277 35.8857H58.5988V79.2393H20.6277V35.8857Z" fill="white"/>
</mask>
<g mask="url(#mask0_505_709)">
<path d="M56.2954 48.3571L38.7375 38.4425L40.0555 38.4306L22.6267 48.7207L23.278 47.5779L23.2686 67.9639L22.5995 66.8104L40.0792 76.7594L38.7848 76.7547L56.6258 66.7713L55.9484 67.9508L55.6227 47.2226L56.2954 48.3571ZM57.591 46.0455C58.0007 46.2776 58.2565 46.7086 58.2648 47.18L58.5905 67.9082C58.5976 68.3973 58.3371 68.8497 57.9119 69.0877L40.0709 79.0711C39.6683 79.2961 39.1768 79.2938 38.7765 79.0664L21.2956 69.1162C20.8823 68.8805 20.6265 68.4399 20.6265 67.9627L20.6348 47.5767C20.6359 47.1077 20.8835 46.6731 21.2861 46.4351L38.7161 36.145C39.1212 35.9046 39.6233 35.8998 40.033 36.132L57.591 46.0455Z" fill="white"/>
</g>
<mask id="mask1_505_709" style="mask-type:luminance" maskUnits="userSpaceOnUse" x="0" y="0" width="38" height="44">
<path d="M0 0.227356H37.9723V43.6568H0V0.227356Z" fill="white"/>
</mask>
<g mask="url(#mask1_505_709)">
<path d="M35.6677 12.6989L18.1098 2.78419L19.4279 2.77116L1.99901 13.0613L2.65035 11.9196L2.64088 32.3056L1.97177 31.1509L19.4515 41.1011L18.1571 41.0964L35.9981 31.113L35.3207 32.2914L34.9951 11.5632L35.6677 12.6989ZM36.9633 10.3872C37.3731 10.6181 37.6289 11.0504 37.6372 11.5217L37.9628 32.2499C37.9699 32.7379 37.7094 33.1914 37.2842 33.4295L19.4433 43.4116C19.0406 43.6378 18.5491 43.6355 18.1489 43.4069L0.66789 33.4579C0.254581 33.2222 -0.0012207 32.7817 -0.0012207 32.3044L0.00706917 11.9184C0.00825366 11.4483 0.255765 11.0137 0.658416 10.7756L18.0885 0.485523C18.4935 0.246301 18.9956 0.241565 19.4054 0.473681L36.9633 10.3872Z" fill="#F5BE1E"/>
</g>
<mask id="mask2_505_709" style="mask-type:luminance" maskUnits="userSpaceOnUse" x="41" y="0" width="38" height="44">
<path d="M41.0276 0H78.9999V43.4294H41.0276V0Z" fill="white"/>
</mask>
<g mask="url(#mask2_505_709)">
<path d="M76.6953 12.4715L59.1374 2.5568L60.4555 2.54377L43.0266 12.8339L43.6779 11.6922L43.6685 32.0782L42.9994 30.9235L60.4791 40.8738L59.1847 40.869L77.0257 30.8856L76.3483 32.064L76.0226 11.3358L76.6953 12.4715ZM77.9909 10.1598C78.4007 10.3907 78.6565 10.823 78.6647 11.2943L78.9904 32.0225C78.9975 32.5105 78.737 32.964 78.3118 33.2021L60.4708 43.1843C60.0682 43.4105 59.5767 43.4081 59.1764 43.1795L41.6955 33.2305C41.2822 32.9948 41.0264 32.5543 41.0264 32.077L41.0347 11.691C41.0358 11.2209 41.2834 10.7863 41.686 10.5482L59.116 0.258137C59.5211 0.0189147 60.0232 0.014178 60.433 0.246294L77.9909 10.1598Z" fill="#F5BE1E"/>
</g>
</svg>
